<svg width="606" height="190.002" viewBox="0 0 656 90.002" xmlns="http://www.w3.org/2000/svg">

<g id="svgGroup" stroke-linecap="round" fill-rule="evenodd" font-size="20rem" stroke="#969ea4" stroke-width="0.25mm" fill="none" style="stroke:#969ea4;stroke-width:5px;fill:#969ea4">

<path d="M 603.409 23.013 L 593.182 23.013 A 13.837 13.837 0 0 0 591.145 17.103 A 13.954 13.954 0 0 0 586.96 12.956 A 21.315 21.315 0 0 0 579.286 9.901 A 29.602 29.602 0 0 0 573.58 9.376 Q 567.784 9.376 563.459 11.251 A 18.279 18.279 0 0 0 559.719 13.398 A 14.486 14.486 0 0 0 556.726 16.407 A 12.285 12.285 0 0 0 554.318 23.865 A 12.142 12.142 0 0 0 554.664 26.826 A 9.484 9.484 0 0 0 556.001 29.852 A 14.156 14.156 0 0 0 560.327 33.986 A 29.305 29.305 0 0 0 565.866 36.67 A 74.001 74.001 0 0 0 568.647 37.613 A 54.509 54.509 0 0 0 571.193 38.353 L 580.057 40.74 A 64.865 64.865 0 0 1 583.426 41.729 Q 585.183 42.293 587.109 43.005 A 108.955 108.955 0 0 1 587.663 43.211 A 36.094 36.094 0 0 1 595.717 47.494 Q 599.574 50.2 602.088 54.419 A 17.201 17.201 0 0 1 604.121 59.772 Q 604.572 61.944 604.6 64.44 A 29.576 29.576 0 0 1 604.602 64.774 A 23.069 23.069 0 0 1 600.916 77.558 A 23.875 23.875 0 0 1 593.878 84.556 A 30.874 30.874 0 0 1 590.178 86.635 Q 583.676 89.738 574.621 89.981 A 58.022 58.022 0 0 1 573.068 90.001 A 48.831 48.831 0 0 1 565.35 89.422 Q 560.701 88.677 556.854 86.976 Q 550.014 83.95 546.115 78.538 A 23.655 23.655 0 0 1 541.83 67.294 A 28.575 28.575 0 0 1 541.705 65.967 L 552.614 65.967 Q 553.04 70.91 555.959 74.128 A 17.118 17.118 0 0 0 561.991 78.367 A 20.732 20.732 0 0 0 563.374 78.9 A 28.692 28.692 0 0 0 571.143 80.401 A 33.495 33.495 0 0 0 573.068 80.456 A 31.716 31.716 0 0 0 579.149 79.896 A 25.252 25.252 0 0 0 583.935 78.474 Q 588.75 76.493 591.563 72.934 A 13.013 13.013 0 0 0 594.374 64.752 A 16.099 16.099 0 0 0 594.375 64.603 A 12.697 12.697 0 0 0 594.004 61.455 A 9.244 9.244 0 0 0 591.946 57.53 A 16.222 16.222 0 0 0 588.311 54.52 A 21.238 21.238 0 0 0 585.554 53.098 A 64.338 64.338 0 0 0 579.527 50.868 A 75.057 75.057 0 0 0 576.989 50.115 L 566.25 47.047 A 52.352 52.352 0 0 1 558.91 44.366 Q 553.692 41.976 550.057 38.652 A 18.074 18.074 0 0 1 544.146 26.034 A 24.727 24.727 0 0 1 544.091 24.376 A 22.732 22.732 0 0 1 545.283 16.914 A 20.276 20.276 0 0 1 548.075 11.571 A 25.732 25.732 0 0 1 556.771 4.06 A 31.261 31.261 0 0 1 558.814 3.048 A 34.488 34.488 0 0 1 569.349 0.242 A 42.394 42.394 0 0 1 573.92 0.001 A 40.533 40.533 0 0 1 581.889 0.752 A 31.859 31.859 0 0 1 588.92 3.005 A 28.521 28.521 0 0 1 595.427 7.063 A 24.295 24.295 0 0 1 599.339 11.209 A 20.459 20.459 0 0 1 603.409 23.013 Z M 362.727 88.467 L 309.375 88.467 L 309.375 1.194 L 362.045 1.194 L 362.045 10.569 L 319.943 10.569 L 319.943 40.058 L 359.318 40.058 L 359.318 49.433 L 319.943 49.433 L 319.943 79.092 L 362.727 79.092 L 362.727 88.467 Z M 86.761 88.467 L 76.193 88.467 L 76.193 1.194 L 105.682 1.194 Q 113.452 1.194 119.107 3.199 A 25.142 25.142 0 0 1 122.472 4.667 A 24.064 24.064 0 0 1 128.703 9.313 A 21.314 21.314 0 0 1 132.188 14.192 A 27.877 27.877 0 0 1 135.118 23.975 A 34.769 34.769 0 0 1 135.341 27.956 A 32.117 32.117 0 0 1 134.477 35.552 A 26.175 26.175 0 0 1 132.187 41.635 A 21.661 21.661 0 0 1 124.092 50.101 A 26.898 26.898 0 0 1 122.514 50.988 Q 117.169 53.766 109.389 54.266 A 55.13 55.13 0 0 1 105.852 54.376 L 81.989 54.376 L 81.989 44.831 L 105.511 44.831 Q 110.489 44.831 114.094 43.793 A 17.395 17.395 0 0 0 116.783 42.785 A 14.643 14.643 0 0 0 120.332 40.444 A 12.151 12.151 0 0 0 123.004 36.969 Q 124.942 33.199 124.943 27.96 A 25.071 25.071 0 0 0 124.943 27.956 A 23.696 23.696 0 0 0 124.512 23.332 A 17.9 17.9 0 0 0 122.983 18.794 A 13.143 13.143 0 0 0 117.883 13.362 A 16.664 16.664 0 0 0 116.719 12.721 A 18.075 18.075 0 0 0 112.775 11.331 Q 109.548 10.569 105.341 10.569 L 86.761 10.569 L 86.761 88.467 Z M 10.568 88.467 L 0 88.467 L 0 1.194 L 29.489 1.194 Q 39.759 1.194 46.3 4.88 A 24.521 24.521 0 0 1 53.014 10.33 A 22.557 22.557 0 0 1 55.994 14.831 A 29.755 29.755 0 0 1 59.037 25.967 A 35.866 35.866 0 0 1 59.148 28.808 A 32.874 32.874 0 0 1 57.924 37.9 A 29.021 29.021 0 0 1 56.016 42.828 A 23.268 23.268 0 0 1 47.067 52.448 A 28.274 28.274 0 0 1 46.364 52.863 A 26.19 26.19 0 0 1 39.446 55.54 Q 35.07 56.592 29.659 56.592 L 8.523 56.592 L 8.523 47.217 L 29.318 47.217 Q 34.403 47.217 38.039 45.947 A 15.509 15.509 0 0 0 40.611 44.788 A 15.363 15.363 0 0 0 44.851 41.297 A 14.118 14.118 0 0 0 46.811 38.204 A 20.601 20.601 0 0 0 48.561 31.978 A 25.829 25.829 0 0 0 48.75 28.808 A 24.275 24.275 0 0 0 48.203 23.552 A 19.682 19.682 0 0 0 46.811 19.433 A 14.045 14.045 0 0 0 41.23 13.317 A 17.432 17.432 0 0 0 40.568 12.934 A 17.015 17.015 0 0 0 36.607 11.403 Q 33.373 10.569 29.148 10.569 L 10.568 10.569 L 10.568 88.467 Z M 451.364 28.467 L 440.795 28.467 Q 439.858 23.907 437.536 20.456 Q 435.213 17.004 431.911 14.639 Q 428.608 12.274 424.602 11.081 Q 420.597 9.888 416.25 9.888 A 26.516 26.516 0 0 0 401.911 13.893 A 26.038 26.038 0 0 0 394.056 21.611 A 33.547 33.547 0 0 0 391.726 25.697 A 35.534 35.534 0 0 0 388.957 34.082 Q 388.158 37.99 387.996 42.495 A 64.885 64.885 0 0 0 387.955 44.831 Q 387.955 54.461 390.677 61.539 A 31.744 31.744 0 0 0 391.726 63.964 A 31.378 31.378 0 0 0 395.999 70.629 A 25.259 25.259 0 0 0 401.911 75.768 Q 408.324 79.774 416.25 79.774 Q 420.597 79.774 424.602 78.581 Q 428.608 77.388 431.911 75.022 Q 435.213 72.657 437.536 69.184 A 21.649 21.649 0 0 0 440.319 63.121 A 25.801 25.801 0 0 0 440.795 61.194 L 451.364 61.194 A 37.141 37.141 0 0 1 448.958 69.359 A 32.294 32.294 0 0 1 447.017 73.169 A 32.435 32.435 0 0 1 439.176 82.139 Q 434.489 85.825 428.672 87.743 A 38.799 38.799 0 0 1 417.991 89.626 A 44.457 44.457 0 0 1 416.25 89.66 A 38.927 38.927 0 0 1 404.015 87.788 A 34.678 34.678 0 0 1 396.392 84.206 A 36.51 36.51 0 0 1 384.362 71.725 A 44.687 44.687 0 0 1 382.713 68.694 A 46.442 46.442 0 0 1 378.682 56.194 A 64.384 64.384 0 0 1 377.727 44.831 A 64.384 64.384 0 0 1 378.682 33.468 A 46.442 46.442 0 0 1 382.713 20.967 A 40.021 40.021 0 0 1 389.717 10.877 A 35.284 35.284 0 0 1 396.392 5.456 A 35.873 35.873 0 0 1 413.497 0.086 A 43.907 43.907 0 0 1 416.25 0.001 A 40.449 40.449 0 0 1 425.996 1.148 A 36.67 36.67 0 0 1 428.672 1.919 Q 434.489 3.836 439.176 7.522 A 32.55 32.55 0 0 1 447.017 16.471 A 33.554 33.554 0 0 1 450.645 25.192 A 40.338 40.338 0 0 1 451.364 28.467 Z M 491.08 10.569 L 463.636 10.569 L 463.636 1.194 L 529.091 1.194 L 529.091 10.569 L 501.648 10.569 L 501.648 88.467 L 491.08 88.467 L 491.08 10.569 Z M 277.67 63.581 L 277.67 1.194 L 288.239 1.194 L 288.239 63.581 Q 288.239 71.158 285.713 76.666 A 22.797 22.797 0 0 1 285.17 77.771 Q 282.102 83.609 276.52 86.635 A 24.609 24.609 0 0 1 268.786 89.23 A 32.979 32.979 0 0 1 263.352 89.66 Q 256.193 89.66 250.611 87.04 A 21.459 21.459 0 0 1 243.971 82.281 A 20.34 20.34 0 0 1 241.832 79.561 A 19.284 19.284 0 0 1 238.889 71.631 A 25.104 25.104 0 0 1 238.636 68.013 L 249.034 68.013 A 12.488 12.488 0 0 0 249.512 71.531 A 10.479 10.479 0 0 0 250.888 74.469 Q 252.741 77.217 255.98 78.751 A 15.847 15.847 0 0 0 260.736 80.12 A 20.12 20.12 0 0 0 263.352 80.285 A 18.104 18.104 0 0 0 266.957 79.944 A 13.044 13.044 0 0 0 271.108 78.368 A 11.941 11.941 0 0 0 275.469 73.761 A 14.954 14.954 0 0 0 275.987 72.721 Q 277.67 68.993 277.67 63.581 Z M 225.58 56.194 A 64.384 64.384 0 0 0 226.534 44.831 A 64.384 64.384 0 0 0 225.58 33.468 A 46.442 46.442 0 0 0 221.548 20.967 A 44.687 44.687 0 0 0 219.9 17.937 A 36.51 36.51 0 0 0 207.869 5.456 A 34.678 34.678 0 0 0 200.247 1.874 A 38.927 38.927 0 0 0 188.011 0.001 A 43.907 43.907 0 0 0 185.259 0.086 A 35.873 35.873 0 0 0 168.153 5.456 A 35.284 35.284 0 0 0 161.478 10.877 A 40.021 40.021 0 0 0 154.474 20.967 A 46.442 46.442 0 0 0 150.443 33.468 A 64.384 64.384 0 0 0 149.489 44.831 A 64.384 64.384 0 0 0 150.443 56.194 A 46.442 46.442 0 0 0 154.474 68.694 A 44.687 44.687 0 0 0 156.123 71.725 A 36.51 36.51 0 0 0 168.153 84.206 A 34.678 34.678 0 0 0 175.776 87.788 A 38.927 38.927 0 0 0 188.011 89.66 A 43.907 43.907 0 0 0 190.764 89.575 A 35.873 35.873 0 0 0 207.869 84.206 A 35.284 35.284 0 0 0 214.544 78.784 A 40.021 40.021 0 0 0 221.548 68.694 A 46.442 46.442 0 0 0 225.58 56.194 Z M 213.585 28.123 A 31.744 31.744 0 0 0 212.536 25.697 A 31.378 31.378 0 0 0 208.262 19.032 A 25.259 25.259 0 0 0 202.351 13.893 Q 195.938 9.888 188.011 9.888 A 26.516 26.516 0 0 0 173.672 13.893 A 26.038 26.038 0 0 0 165.818 21.611 A 33.547 33.547 0 0 0 163.487 25.697 A 35.534 35.534 0 0 0 160.719 34.082 Q 159.92 37.99 159.757 42.495 A 64.885 64.885 0 0 0 159.716 44.831 Q 159.716 54.461 162.438 61.539 A 31.744 31.744 0 0 0 163.487 63.964 A 31.378 31.378 0 0 0 167.761 70.629 A 25.259 25.259 0 0 0 173.672 75.768 Q 180.085 79.774 188.011 79.774 A 26.516 26.516 0 0 0 202.351 75.768 A 26.038 26.038 0 0 0 210.205 68.051 A 33.547 33.547 0 0 0 212.536 63.964 A 35.534 35.534 0 0 0 215.304 55.58 Q 216.103 51.672 216.265 47.166 A 64.885 64.885 0 0 0 216.307 44.831 Q 216.307 35.2 213.585 28.123 Z M 105.341 49.263 L 117.273 49.263 L 138.75 88.467 L 126.477 88.467 L 105.341 49.263 Z" vector-effect="non-scaling-stroke"/></g></svg>